# xmcd CD database file
#
# Track frame offsets:
#	150
#	7854
#	18115
#	21787
#	32206
#	43081
#	47227
#	56038
#	63250
#	64729
#	81976
#	83620
#	84070
#	86743
#	90142
#	95872
#	99322
#	107728
#	114805
#	120385
#	123793
#	128428
#	131548
#	145576
#	149776
#	157183
#	167356
#	177697
#	188497
#	197290
#	204433
#	205831
#	223022
#	229899
#	235731
#	241389
#	250029
#	257022
#	262527
#	267054
#	281436
#	285561
#
# Disc length: 3901 seconds
#
# Revision: 0
# Processed by: cddbd v1.5.2PL0 Copyright (c) Steve Scherf et al.
# Submitted via: CDex 1.90
#
DISCID=280f3b2a
DTITLE=Meredith Willson - The Music Man Junior
DYEAR=2001
DGENRE=Jazz
TTITLE0=Opening
TTITLE1=Rock Island
TTITLE2=Change to Scene Two
TTITLE3=Iowa Stubborn
TTITLE4=Ya Got Trouble
TTITLE5=Change to Scene Three
TTITLE6=Piano Lesson/If You Don't Mind
TTITLE7=goodnight, My Someone
TTITLE8=Columbia, Gem of the Ocean
TTITLE9=76 Trombones
TTITLE10=76 Trombones Playoff
TTITLE11=Ice Crea/Sincere (acappella/index point only)
TTITLE12=Change to Scene Six
TTITLE13=Pick-a-Little Part I
TTITLE14=Pick-a-Little Part II
TTITLE15=Change to Scene Seven
TTITLE16=Wells Fargo Wagon
TTITLE17=Shipoopi
TTITLE18=Pick-a-Little (Reprise)
TTITLE19=Change to Scene Nine
TTITLE20=Gary, Indiana
TTITLE21=Chase Music
TTITLE22=Til There Was You
TTITLE23=Finale
TTITLE24=Bows
TTITLE25=Rock Island
TTITLE26=Iowa Stubborn
TTITLE27=Ya Got Trouble
TTITLE28=Piano Lesson/If You Don't Mind
TTITLE29=Goodnight, My Someone
TTITLE30=Columbia, Gem of the Ocean
TTITLE31=76 Trombones
TTITLE32=Ice Cream/Sincere
TTITLE33=Pick-a-Little Part I
TTITLE34=Pick-a-Little Part II
TTITLE35=Wells Fargo wagon
TTITLE36=Shipoopi
TTITLE37=Pick-a-Little (Reprise)
TTITLE38=Gary, Indiana
TTITLE39=Til There Was You
TTITLE40=Finale
TTITLE41=Bows
EXTD=YEAR: 2001
EXTT0=
EXTT1=
EXTT2=
EXTT3=
EXTT4=
EXTT5=
EXTT6=
EXTT7=
EXTT8=
EXTT9=
EXTT10=
EXTT11=
EXTT12=
EXTT13=
EXTT14=
EXTT15=
EXTT16=
EXTT17=
EXTT18=
EXTT19=
EXTT20=
EXTT21=
EXTT22=
EXTT23=
EXTT24=
EXTT25=
EXTT26=
EXTT27=
EXTT28=
EXTT29=
EXTT30=
EXTT31=
EXTT32=
EXTT33=
EXTT34=
EXTT35=
EXTT36=
EXTT37=
EXTT38=
EXTT39=
EXTT40=
EXTT41=
PLAYORDER=
